<?xml version="1.0" encoding="UTF-8"?>
<svg xmlns="http://www.w3.org/2000/svg" xmlns:xlink="http://www.w3.org/1999/xlink" width="500px" height="350px" viewBox="0 0 500 350" version="1.1">
<g id="surface1">
<path style=" stroke:none;fill-rule:nonzero;fill:rgb(0%,0%,0%);fill-opacity:1;" d="M 0 174.742188 L 0 349.480469 L 500 349.480469 L 500 0 L 0 0 Z M 488.371094 174.742188 L 488.371094 339.128906 L 11.628906 339.128906 L 11.628906 10.355469 L 488.371094 10.355469 Z M 488.371094 174.742188 "/>
<path style=" stroke:none;fill-rule:nonzero;fill:rgb(0%,0%,0%);fill-opacity:1;" d="M 137.355469 61.09375 C 134.011719 63.683594 133.285156 66.011719 130.8125 80.898438 C 126.890625 104.585938 127.035156 109.375 131.539062 112.09375 C 134.449219 113.777344 136.335938 114.035156 139.824219 113.128906 C 147.527344 111.1875 149.273438 107.304688 152.617188 86.464844 C 156.105469 63.164062 156.105469 63.941406 152.617188 60.835938 C 148.835938 57.46875 142.003906 57.601562 137.355469 61.09375 Z M 145.203125 70.15625 C 145.058594 79.085938 139.972656 105.363281 138.371094 105.878906 C 136.046875 106.527344 136.191406 104.585938 139.535156 84.78125 C 141.132812 75.460938 142.441406 67.566406 142.441406 66.917969 C 142.441406 66.402344 143.167969 66.011719 143.894531 66.011719 C 144.765625 66.011719 145.347656 67.953125 145.203125 70.15625 Z M 145.203125 70.15625 "/>
<path style=" stroke:none;fill-rule:nonzero;fill:rgb(0%,0%,0%);fill-opacity:1;" d="M 190.84375 59.152344 C 187.0625 59.800781 187.0625 59.929688 183.140625 86.722656 C 181.539062 97.726562 179.796875 108.082031 179.503906 109.632812 C 178.777344 112.222656 179.359375 112.609375 183.722656 112.609375 L 188.515625 112.609375 L 190.40625 100.3125 C 191.570312 92.289062 192.878906 88.148438 193.894531 88.40625 C 195.785156 88.921875 195.785156 91.511719 194.1875 103.808594 L 193.023438 112.609375 L 197.382812 112.609375 C 201.597656 112.609375 201.746094 112.351562 203.34375 104.457031 C 205.378906 94.230469 205.378906 88.535156 203.488281 85.300781 C 202.324219 83.617188 202.472656 82.839844 203.488281 82.839844 C 207.703125 82.839844 209.882812 64.71875 206.105469 61.355469 C 203.777344 59.28125 195.929688 58.117188 190.84375 59.152344 Z M 198.253906 73.910156 C 196.65625 80.640625 192.878906 82.710938 194.1875 76.109375 C 195.929688 66.402344 196.367188 65.625 197.964844 67.046875 C 199.128906 68.085938 199.128906 70.285156 198.253906 73.910156 Z M 198.253906 73.910156 "/>
<path style=" stroke:none;fill-rule:nonzero;fill:rgb(0%,0%,0%);fill-opacity:1;" d="M 228.925781 61.09375 C 226.164062 63.296875 224.855469 66.011719 223.835938 71.578125 C 222.238281 80.511719 222.820312 82.191406 229.214844 87.628906 C 233.722656 91.382812 234.011719 92.160156 233.140625 97.335938 C 231.976562 104.84375 231.539062 106.140625 229.503906 106.140625 C 228.34375 106.140625 228.050781 104.066406 228.777344 99.019531 L 229.652344 91.902344 L 225.4375 91.902344 C 220.496094 91.902344 219.621094 93.453125 219.1875 102.773438 C 218.894531 107.953125 219.476562 109.375 222.382812 111.574219 C 226.453125 114.550781 233.140625 113.90625 237.355469 110.152344 C 240.40625 107.433594 242.585938 100.054688 242.734375 92.417969 C 242.734375 88.019531 241.859375 86.464844 237.644531 82.96875 C 232.558594 78.828125 231.539062 75.460938 233.429688 68.859375 C 235.027344 63.554688 237.355469 65.753906 236.484375 71.839844 L 235.464844 77.664062 L 245.640625 77.664062 L 245.640625 69.25 C 245.640625 62.390625 245.203125 60.707031 242.878906 59.542969 C 238.371094 57.46875 232.996094 57.988281 228.925781 61.09375 Z M 228.925781 61.09375 "/>
<path style=" stroke:none;fill-rule:nonzero;fill:rgb(0%,0%,0%);fill-opacity:1;" d="M 257.703125 59.542969 C 255.960938 60.1875 253.925781 61.742188 253.050781 63.164062 C 251.453125 65.882812 245.640625 99.019531 245.640625 105.75 C 245.640625 116.753906 264.097656 116.234375 267.296875 105.105469 C 268.023438 102.515625 269.039062 97.855469 269.476562 94.75 L 270.347656 89.183594 L 265.699219 89.570312 C 261.191406 89.960938 260.902344 90.21875 259.449219 97.597656 C 258.574219 102.125 257.121094 105.492188 255.960938 105.878906 C 254.359375 106.398438 254.070312 105.492188 254.941406 102.257812 C 255.378906 99.925781 256.976562 90.734375 258.285156 82.0625 C 260.027344 70.285156 261.191406 66.011719 262.644531 66.011719 C 264.246094 66.011719 264.390625 67.4375 263.664062 72.742188 C 263.082031 76.496094 262.644531 80.121094 262.5 80.898438 C 262.5 81.546875 264.390625 82.324219 266.859375 82.582031 C 271.222656 82.96875 271.367188 82.710938 272.382812 76.886719 C 273.984375 66.011719 273.546875 62.390625 270.058594 60.316406 C 266.425781 57.988281 262.5 57.859375 257.703125 59.542969 Z M 257.703125 59.542969 "/>
<path style=" stroke:none;fill-rule:nonzero;fill:rgb(0%,0%,0%);fill-opacity:1;" d="M 311.484375 59.542969 C 309.738281 60.1875 307.558594 61.871094 306.6875 63.425781 C 304.941406 66.402344 299.417969 98.503906 299.417969 105.75 C 299.417969 114.683594 313.808594 116.753906 319.621094 108.597656 C 321.511719 105.878906 326.890625 75.332031 327.035156 67.179688 C 327.035156 59.671875 320.347656 56.304688 311.484375 59.542969 Z M 318.3125 66.53125 C 318.3125 68.601562 312.355469 103.292969 311.773438 104.714844 C 311.191406 105.878906 310.464844 106.140625 309.59375 105.363281 C 307.558594 103.550781 314.097656 66.011719 316.425781 66.011719 C 317.441406 66.011719 318.3125 66.273438 318.3125 66.53125 Z M 318.3125 66.53125 "/>
<path style=" stroke:none;fill-rule:nonzero;fill:rgb(0%,0%,0%);fill-opacity:1;" d="M 336.773438 60.835938 C 334.738281 62.257812 332.703125 64.460938 332.265625 65.753906 C 330.378906 71.0625 325.582031 106.527344 326.308594 108.855469 C 328.34375 114.292969 340.117188 115.070312 345.203125 110.023438 C 348.546875 106.785156 355.234375 67.4375 353.199219 62.90625 C 351.015625 57.601562 342.878906 56.5625 336.773438 60.835938 Z M 344.476562 68.214844 C 344.476562 72.484375 338.808594 105.105469 338.082031 105.878906 C 335.609375 108.082031 335.464844 103.03125 337.789062 87.628906 C 340.699219 68.34375 341.277344 66.011719 343.167969 66.011719 C 343.894531 66.011719 344.476562 67.046875 344.476562 68.214844 Z M 344.476562 68.214844 "/>
<path style=" stroke:none;fill-rule:nonzero;fill:rgb(0%,0%,0%);fill-opacity:1;" d="M 160.753906 61.09375 C 159.738281 64.332031 154.070312 102.902344 154.070312 106.398438 C 154.070312 110.152344 158.722656 113.90625 163.226562 113.90625 C 168.894531 113.90625 174.273438 110.152344 175.726562 105.105469 C 176.890625 101.089844 183.140625 63.554688 183.140625 60.449219 C 183.140625 59.929688 181.25 59.542969 178.777344 59.542969 C 173.691406 59.542969 174.128906 58.246094 170.058594 84.652344 C 166.859375 104.84375 166.570312 106.140625 163.953125 106.140625 C 163.082031 106.140625 162.789062 104.457031 163.371094 101.867188 C 163.808594 99.667969 165.261719 90.996094 166.425781 82.839844 C 167.585938 74.6875 169.039062 66.011719 169.476562 63.683594 C 170.347656 59.671875 170.203125 59.542969 165.84375 59.542969 C 163.371094 59.542969 161.046875 60.316406 160.753906 61.09375 Z M 160.753906 61.09375 "/>
<path style=" stroke:none;fill-rule:nonzero;fill:rgb(0%,0%,0%);fill-opacity:1;" d="M 278.488281 63.683594 C 278.050781 66.011719 276.308594 77.015625 274.710938 88.019531 C 273.109375 99.019531 271.367188 109.117188 270.929688 110.28125 C 270.347656 112.222656 271.074219 112.609375 275.144531 112.609375 L 280.234375 112.609375 L 282.121094 100.960938 C 283.429688 92.289062 284.449219 89.3125 286.046875 89.3125 C 287.644531 89.3125 287.9375 90.347656 287.355469 94.101562 C 286.917969 96.820312 286.046875 102.125 285.464844 105.75 L 284.449219 112.609375 L 288.953125 112.609375 C 293.894531 112.609375 293.75 113.257812 298.691406 80.25 C 299.855469 72.097656 301.164062 64.070312 301.453125 62.390625 C 301.890625 59.929688 301.308594 59.542969 297.238281 59.542969 C 292.585938 59.542969 292.585938 59.542969 291.570312 67.566406 C 290.117188 78.699219 289.246094 81.804688 287.210938 81.15625 C 286.335938 80.769531 285.753906 80.121094 285.902344 79.476562 C 286.046875 78.828125 286.628906 74.039062 287.0625 68.859375 L 288.226562 59.542969 L 283.722656 59.542969 C 279.941406 59.542969 279.214844 60.058594 278.488281 63.683594 Z M 278.488281 63.683594 "/>
<path style=" stroke:none;fill-rule:nonzero;fill:rgb(0%,0%,0%);fill-opacity:1;" d="M 359.011719 60.707031 C 359.011719 61.355469 357.414062 72.484375 355.378906 85.429688 C 353.34375 98.371094 351.746094 109.761719 351.746094 110.796875 C 351.746094 112.09375 353.777344 112.609375 359.59375 112.609375 C 366.714844 112.609375 367.441406 112.351562 368.023438 109.375 C 368.894531 105.621094 368.3125 104.84375 364.535156 104.84375 C 363.082031 104.84375 361.917969 104.585938 361.917969 104.199219 C 361.917969 102.644531 367.878906 65.105469 368.460938 62.390625 C 369.1875 59.800781 368.75 59.542969 364.097656 59.542969 C 361.335938 59.542969 359.011719 60.058594 359.011719 60.707031 Z M 359.011719 60.707031 "/>
<path style=" stroke:none;fill-rule:nonzero;fill:rgb(0%,0%,0%);fill-opacity:1;" d="M 232.996094 138.5 C 229.070312 139.921875 228.632812 144.582031 231.832031 150.148438 C 234.15625 154.03125 238.082031 155.585938 246.222656 155.84375 C 249.710938 155.972656 250.871094 156.621094 251.164062 158.949219 C 251.890625 163.089844 248.402344 167.363281 238.808594 174.09375 L 230.523438 179.789062 L 228.34375 173.707031 C 225.4375 166.328125 219.476562 162.445312 209.011719 161.148438 C 199.128906 159.855469 197.238281 161.925781 197.964844 173.058594 C 198.402344 179.917969 199.273438 181.859375 202.761719 185.097656 C 205.085938 187.167969 209.15625 189.367188 211.773438 189.757812 C 214.390625 190.144531 216.859375 191.050781 217.296875 191.566406 C 217.734375 192.085938 217.003906 195.0625 215.84375 198.039062 C 212.9375 205.160156 213.082031 216.679688 215.988281 224.445312 C 218.894531 231.953125 230.378906 243.34375 238.226562 246.578125 L 244.1875 248.910156 L 244.1875 281.914062 L 235.902344 278.808594 C 224.128906 274.539062 207.558594 274.539062 195.785156 278.808594 L 187.5 281.914062 L 187.789062 246.191406 L 188.226562 210.335938 L 197.675781 206.195312 C 207.703125 201.792969 209.59375 199.851562 205.667969 198.558594 C 202.179688 197.261719 193.167969 200.109375 186.335938 204.511719 L 180.234375 208.394531 L 180.234375 249.6875 C 180.234375 295.246094 180.085938 294.859375 189.097656 289.421875 C 198.691406 283.726562 206.832031 281.785156 219.039062 282.433594 C 230.523438 283.082031 237.644531 285.28125 243.75 290.199219 L 246.949219 292.789062 L 253.925781 289.035156 C 263.808594 283.597656 269.476562 282.175781 280.378906 282.175781 C 291.277344 282.304688 298.546875 284.246094 306.6875 289.292969 C 309.738281 291.234375 313.082031 292.398438 313.808594 291.882812 C 314.972656 291.363281 315.40625 277.386719 315.40625 249.425781 L 315.40625 207.746094 L 310.609375 204.898438 C 308.140625 203.347656 304.214844 201.40625 302.035156 200.5 C 298.253906 199.074219 298.109375 198.429688 297.675781 189.109375 L 297.238281 179.269531 L 289.097656 179.402344 C 282.703125 179.53125 279.070312 180.4375 272.964844 183.542969 C 264.679688 187.8125 255.234375 195.0625 250.582031 201.015625 L 247.675781 204.769531 L 240.988281 201.792969 C 229.214844 196.746094 225 201.664062 236.628906 207.101562 L 243.460938 210.335938 L 243.894531 226.386719 L 244.332031 242.4375 L 240.261719 240.105469 C 222.675781 230.269531 216.277344 212.796875 224.417969 197.394531 C 227.617188 191.308594 230.667969 188.332031 248.109375 175.257812 L 255.085938 169.953125 L 260.902344 172.28125 C 264.097656 173.578125 269.332031 174.742188 272.382812 174.742188 C 277.324219 174.742188 279.070312 173.964844 284.449219 168.917969 C 292.734375 161.148438 293.894531 157.007812 288.515625 153.382812 C 284.449219 150.40625 275.726562 147.558594 270.785156 147.558594 C 269.1875 147.558594 265.40625 148.984375 262.644531 150.796875 C 257.558594 153.773438 257.265625 153.902344 255.8125 151.441406 C 255.085938 150.148438 254.359375 148.078125 254.359375 146.910156 C 254.359375 145.746094 252.472656 143.027344 250.144531 140.957031 C 245.640625 137.074219 239.535156 136.167969 232.996094 138.5 Z M 245.347656 145.230469 C 247.675781 147.300781 247.527344 148.464844 244.765625 149.371094 C 242.296875 150.148438 236.917969 146.910156 236.917969 144.710938 C 236.917969 143.160156 243.3125 143.417969 245.347656 145.230469 Z M 282.121094 157.007812 C 285.027344 158.949219 285.027344 158.949219 280.523438 163.609375 C 275.4375 168.65625 270.785156 169.5625 263.808594 166.714844 C 259.011719 164.773438 259.15625 162.832031 264.824219 157.914062 C 268.605469 154.417969 270.203125 153.902344 274.273438 154.417969 C 276.890625 154.808594 280.378906 155.972656 282.121094 157.007812 Z M 214.390625 168.917969 C 219.914062 170.859375 222.382812 174.871094 222.382812 181.472656 C 222.382812 185.226562 222.09375 185.355469 217.734375 184.578125 C 209.300781 183.15625 205.667969 179.789062 205.234375 172.929688 C 204.652344 166.199219 205.8125 165.679688 214.390625 168.917969 Z M 290.699219 221.078125 L 290.699219 257.0625 L 283.867188 258.617188 C 275 260.816406 268.605469 264.3125 259.15625 272.335938 L 251.453125 278.679688 L 251.453125 210.078125 L 257.703125 203.734375 C 266.425781 194.804688 270.058594 192.085938 278.199219 188.332031 C 291.570312 182.378906 290.699219 180.175781 290.699219 221.078125 Z M 307.847656 246.191406 L 308.140625 281.914062 L 299.128906 278.679688 C 291.277344 275.832031 288.515625 275.445312 277.324219 275.960938 C 265.550781 276.480469 264.824219 276.351562 266.714844 274.410156 C 270.640625 270.65625 283.285156 265.089844 290.40625 264.183594 L 297.238281 263.40625 L 297.675781 234.542969 L 297.964844 205.546875 L 302.761719 208.007812 L 307.414062 210.464844 Z M 307.847656 246.191406 "/>
</g>
</svg>
